<?xml version="1.0" encoding="utf-8"?>
<!-- Generator: Adobe Illustrator 25.2.1, SVG Export Plug-In . SVG Version: 6.00 Build 0)  -->
<svg version="1.1" id="Layer_1" xmlns="http://www.w3.org/2000/svg" xmlns:xlink="http://www.w3.org/1999/xlink" x="0px" y="0px"
	 viewBox="0 0 94.47 87.88" style="enable-background:new 0 0 94.47 87.88;" xml:space="preserve">
<style type="text/css">
	.st0{fill:#0000FF;}
	.st1{fill:#02F500;}
</style>
<g>
	<path class="st0" d="M47.24,15.64c15.68,0,28.45,12.76,28.45,28.45S62.92,72.53,47.24,72.53S18.79,59.77,18.79,44.09
		S31.55,15.64,47.24,15.64 M47.24,14.64c-16.26,0-29.45,13.18-29.45,29.45c0,16.26,13.18,29.45,29.45,29.45s29.45-13.18,29.45-29.45
		C76.68,27.82,63.5,14.64,47.24,14.64L47.24,14.64z"/>
</g>
<g>
	<g>
		<path class="st1" d="M41.27,51.9h5.7V40.37h-5.11v-2.36h7.66V51.9h5.31v2.36H41.27V51.9z M45.92,33.16c0-0.63,0.22-1.17,0.67-1.62
			c0.45-0.45,0.99-0.67,1.62-0.67c0.63,0,1.17,0.22,1.62,0.67c0.45,0.45,0.67,0.99,0.67,1.62c0,0.63-0.22,1.17-0.67,1.62
			c-0.45,0.45-0.99,0.67-1.62,0.67c-0.63,0-1.17-0.22-1.62-0.67C46.14,34.34,45.92,33.8,45.92,33.16z"/>
	</g>
</g>
</svg>
