<?xml version="1.0" encoding="UTF-8"?>
<svg width="110px" height="110px" viewBox="0 0 110 110" version="1.1" xmlns="http://www.w3.org/2000/svg" xmlns:xlink="http://www.w3.org/1999/xlink">
    <g id="Page-1" stroke="none" stroke-width="1" fill="none" fill-rule="evenodd">
        <g id="info" transform="translate(2.000000, 2.000000)">
            <circle id="Oval" stroke="#FFFFFF" stroke-width="3" stroke-linecap="square" cx="53" cy="53" r="53" class="path"></circle>
            <path d="M40,71.0621538 L51.7699115,71.0621538 L51.7699115,46.9378462 L41.2182891,46.9378462 L41.2182891,42 L57.0353982,42 L57.0353982,71.0621538 L68,71.0621538 L68,76 L40,76 L40,71.0621538 Z M50,31.5 C50,30.2620087 50.4323144,29.2008734 51.3165939,28.3165939 C52.2008734,27.4323144 53.2620087,27 54.5,27 C55.7379913,27 56.7991266,27.4323144 57.6834061,28.3165939 C58.5676856,29.2008734 59,30.2620087 59,31.5 C59,32.7379913 58.5676856,33.7991266 57.6834061,34.6834061 C56.7991266,35.5676856 55.7379913,36 54.5,36 C53.2620087,36 52.2008734,35.5676856 51.3165939,34.6834061 C50.4323144,33.8187773 50,32.7576419 50,31.5 Z" id="info-shape" class="fill" fill="#FFFFFF" fill-rule="nonzero"></path>
        </g>
    </g>
</svg>