<?xml version="1.0" encoding="utf-8"?>
<!-- Generator: Adobe Illustrator 25.2.1, SVG Export Plug-In . SVG Version: 6.00 Build 0)  -->
<svg version="1.1" id="Layer_1" xmlns="http://www.w3.org/2000/svg" xmlns:xlink="http://www.w3.org/1999/xlink" x="0px" y="0px"
	 viewBox="0 0 94.47 87.88" style="enable-background:new 0 0 94.47 87.88;" xml:space="preserve">
<style type="text/css">
	.st0{fill:#FFFFFF;}
	.st1{clip-path:url(#SVGID_2_);fill:none;stroke:#FFFFFF;stroke-miterlimit:10;}
</style>
<g>
	<path class="st0" d="M47.27,15.64c15.68,0,28.45,12.76,28.45,28.45S62.96,72.53,47.27,72.53S18.83,59.77,18.83,44.09
		S31.59,15.64,47.27,15.64 M47.27,14.64c-16.26,0-29.45,13.18-29.45,29.45c0,16.26,13.18,29.45,29.45,29.45
		c16.26,0,29.45-13.18,29.45-29.45C76.72,27.82,63.54,14.64,47.27,14.64L47.27,14.64z"/>
</g>
<polygon class="st0" points="46.02,56.63 38.13,48.74 33.39,48.74 33.39,44.16 33.39,44.01 33.39,39.44 38.13,39.44 46.02,31.54 "/>
<g>
	<defs>
		<polyline id="SVGID_1_" points="59.29,30.37 66.27,43.69 59.29,57.86 41.67,43.6 59.29,30.37 41.67,44.63 		"/>
	</defs>
	<clipPath id="SVGID_2_">
		<use xlink:href="#SVGID_1_"  style="overflow:visible;"/>
	</clipPath>
	<circle class="st1" cx="45.82" cy="43.69" r="7.04"/>
	<circle class="st1" cx="46.82" cy="43.69" r="10.42"/>
	<circle class="st1" cx="46.82" cy="43.69" r="14.56"/>
</g>
</svg>
