<?xml version="1.0" encoding="utf-8"?>
<!-- Generator: Adobe Illustrator 25.2.1, SVG Export Plug-In . SVG Version: 6.00 Build 0)  -->
<svg version="1.1" id="Layer_1" xmlns="http://www.w3.org/2000/svg" xmlns:xlink="http://www.w3.org/1999/xlink" x="0px" y="0px"
	 viewBox="0 0 94.47 87.88" style="enable-background:new 0 0 94.47 87.88;" xml:space="preserve">
<style type="text/css">
	.st0{fill:#0000FF;}
	.st1{fill:#02F500;}
	.st2{clip-path:url(#SVGID_2_);}
</style>
<g>
	<path class="st0" d="M46.88,15.64c15.68,0,28.45,12.76,28.45,28.45S62.57,72.53,46.88,72.53S18.44,59.77,18.44,44.09
		S31.2,15.64,46.88,15.64 M46.88,14.64c-16.26,0-29.45,13.18-29.45,29.45c0,16.26,13.18,29.45,29.45,29.45
		c16.26,0,29.45-13.18,29.45-29.45C76.33,27.82,63.14,14.64,46.88,14.64L46.88,14.64z"/>
</g>
<g>
	<polygon class="st1" points="45.63,56.63 37.73,48.74 33,48.74 33,44.16 33,44.01 33,39.44 37.73,39.44 45.63,31.54 	"/>
</g>
<g>
	<defs>
		<polyline id="SVGID_1_" points="58.9,30.37 65.88,43.69 58.9,57.86 41.27,43.6 58.9,30.37 41.27,44.63 		"/>
	</defs>
	<clipPath id="SVGID_2_">
		<use xlink:href="#SVGID_1_"  style="overflow:visible;"/>
	</clipPath>
	<g class="st2">
		<path class="st1" d="M45.43,37.65c3.33,0,6.04,2.71,6.04,6.04s-2.71,6.04-6.04,6.04s-6.04-2.71-6.04-6.04S42.1,37.65,45.43,37.65
			 M45.43,36.65c-3.89,0-7.04,3.15-7.04,7.04s3.15,7.04,7.04,7.04c3.89,0,7.04-3.15,7.04-7.04S49.32,36.65,45.43,36.65L45.43,36.65z
			"/>
	</g>
	<g class="st2">
		<path class="st1" d="M46.43,34.27c5.2,0,9.42,4.23,9.42,9.42s-4.23,9.42-9.42,9.42c-5.2,0-9.42-4.23-9.42-9.42
			S41.23,34.27,46.43,34.27 M46.43,33.27C40.67,33.27,36,37.94,36,43.69c0,5.76,4.67,10.42,10.42,10.42
			c5.76,0,10.42-4.67,10.42-10.42C56.85,37.94,52.18,33.27,46.43,33.27L46.43,33.27z"/>
	</g>
	<g class="st2">
		<path class="st1" d="M46.43,30.14c7.47,0,13.56,6.08,13.56,13.56S53.9,57.25,46.43,57.25s-13.56-6.08-13.56-13.56
			S38.95,30.14,46.43,30.14 M46.43,29.14c-8.04,0-14.56,6.52-14.56,14.56c0,8.04,6.52,14.56,14.56,14.56
			c8.04,0,14.56-6.52,14.56-14.56C60.98,35.65,54.47,29.14,46.43,29.14L46.43,29.14z"/>
	</g>
</g>
</svg>
