<?xml version="1.0" encoding="utf-8"?>
<!-- Generator: Adobe Illustrator 25.2.1, SVG Export Plug-In . SVG Version: 6.00 Build 0)  -->
<svg version="1.1" id="Layer_1" xmlns="http://www.w3.org/2000/svg" xmlns:xlink="http://www.w3.org/1999/xlink" x="0px" y="0px"
	 viewBox="0 0 94.47 87.88" style="enable-background:new 0 0 94.47 87.88;" xml:space="preserve">
<style type="text/css">
	.st0{fill:#0000FF;}
	.st1{fill:#02F500;}
	.st2{fill:none;stroke:#02F500;stroke-miterlimit:10;}
</style>
<g>
	<path class="st0" d="M47.31,15.64c15.68,0,28.45,12.76,28.45,28.45S63,72.53,47.31,72.53S18.87,59.77,18.87,44.09
		S31.63,15.64,47.31,15.64 M47.31,14.64c-16.26,0-29.45,13.18-29.45,29.45c0,16.26,13.18,29.45,29.45,29.45
		c16.26,0,29.45-13.18,29.45-29.45C76.76,27.82,63.58,14.64,47.31,14.64L47.31,14.64z"/>
</g>
<g>
	<polygon class="st1" points="47.06,56.63 39.17,48.74 34.43,48.74 34.43,44.16 34.43,44.01 34.43,39.44 39.17,39.44 47.06,31.54 	
		"/>
</g>
<line class="st2" x1="49.72" y1="48.83" x2="60.2" y2="38.36"/>
<line class="st2" x1="60.2" y1="48.83" x2="49.72" y2="38.36"/>
</svg>
