<svg width="110px" height="110px" viewBox="0 0 110 110" version="1.1" xmlns="http://www.w3.org/2000/svg" xmlns:xlink="http://www.w3.org/1999/xlink">
    <g id="Page-1" stroke="none" stroke-width="1" fill="none" fill-rule="evenodd">
        <g id="volume-mute" transform="translate(2.000000, 2.000000)" stroke="#FFFFFF" stroke-width="3">
            <path d="M68.729,61.587 C71.0063169,59.3097374 72.2857047,56.221074 72.2857047,53.0005 C72.2857047,49.779926 71.0063169,46.6912626 68.729,44.414" id="Path" stroke-linecap="square"></path>
            <path d="M75.6,68.456 C79.6992069,64.356825 82.00212,58.7971314 82.00212,53 C82.00212,47.2028686 79.6992069,41.643175 75.6,37.544" id="Path" stroke-linecap="square"></path>
            <polyline id="Path" stroke-linecap="square" points="63 50 63 81 45.125 68"></polyline>
            <path d="M40,65 L28,65 C25.2385763,65 23,62.7614237 23,60 L23,46 C23,43.2385763 25.2385763,41 28,41 L41,41 L63,25 L63,42" id="Path"></path>
            <path d="M79,26 L25,80" id="Path-2" stroke-linecap="square"></path>
            <circle id="Oval" stroke-linecap="square" cx="53" cy="53" r="53"></circle>
        </g>
    </g>
</svg>