{
	"materials":[{
		"alphaMode":"OPAQUE",
		"pbrMetallicRoughness":{
			"baseColorFactor":[0.9400000000000001,
			0.9400000000000001,
			0.9400000000000001,
			1.0],
			"metallicFactor":0.0,
			"roughnessFactor":0.5
		},
		"normalTexture":{
			"index":0,
			"scale":0.31000000000000035
		},
		"emissiveFactor":[0.0,
		0.0,
		0.0],
		"doubleSided":true,
		"name":"Pottery White"
	},
	{
		"alphaMode":"OPAQUE",
		"pbrMetallicRoughness":{
			"baseColorTexture":{
				"index":1
			},
			"baseColorFactor":[0.9,
			0.9,
			0.9,
			1.0],
			"metallicFactor":1.0,
			"roughnessFactor":1.0
		},
		"normalTexture":{
			"index":2,
			"scale":0.32999999999999998
		},
		"emissiveFactor":[0.0,
		0.0,
		0.0],
		"doubleSided":true,
		"name":"Mat"
	}],
	"asset":{
		"version":"2.0",
		"generator":"Created using the official Cinema 4D glTF Exporter 1.000x284978"
	},
	"scenes":[{
		"nodes":[0,
		10]
	}],
	"nodes":[{
		"name":"Ball",
		"translation":[0.0,
		0.0,
		0.0],
		"rotation":[0.0,
		0.0,
		0.0,
		-1.0],
		"scale":[1.0,
		1.0,
		1.0],
		"children":[1,
		4,
		5,
		6,
		7]
	},
	{
		"name":"Slice 6",
		"translation":[0.0,
		50.0,
		0.0],
		"rotation":[0.0,
		-0.5,
		0.0,
		0.8660253882408142],
		"scale":[1.0,
		1.0,
		1.0],
		"children":[2,
		3]
	},
	{
		"name":"Slice 6-Pottery White",
		"translation":[0.0,
		7.105427357601002e-15,
		0.0],
		"rotation":[0.0,
		-1.2246468525851679e-16,
		0.0,
		1.0],
		"scale":[1.0,
		1.0,
		1.0],
		"mesh":0
	},
	{
		"name":"Slice 6-Mat",
		"translation":[0.0,
		7.105427357601002e-15,
		0.0],
		"rotation":[0.0,
		-1.2246468525851679e-16,
		0.0,
		1.0],
		"scale":[1.0,
		1.0,
		1.0],
		"mesh":1
	},
	{
		"name":"Slice 5",
		"translation":[0.0,
		50.0,
		0.0],
		"rotation":[0.0,
		-0.8660253882408142,
		0.0,
		0.5],
		"scale":[1.0,
		1.0,
		1.0],
		"mesh":2
	},
	{
		"name":"Slice 4",
		"translation":[0.0,
		50.0,
		0.0],
		"rotation":[0.0,
		-1.0,
		0.0,
		-6.123234262925839e-17],
		"scale":[1.0,
		1.0,
		1.0],
		"mesh":3
	},
	{
		"name":"Slice 3",
		"translation":[0.0,
		50.0,
		0.0],
		"rotation":[0.0,
		-0.8660253882408142,
		0.0,
		-0.5],
		"scale":[1.0,
		1.0,
		1.0],
		"mesh":4
	},
	{
		"name":"Slice 2",
		"translation":[0.0,
		50.0,
		0.0],
		"rotation":[0.0,
		-0.5,
		0.0,
		-0.8660253882408142],
		"scale":[1.0,
		1.0,
		1.0],
		"children":[8,
		9]
	},
	{
		"name":"Slice 2-Pottery White",
		"translation":[0.0,
		-7.105427357601002e-15,
		0.0],
		"rotation":[0.0,
		0.0,
		0.0,
		-1.0],
		"scale":[1.0,
		1.0,
		1.0],
		"mesh":5
	},
	{
		"name":"Slice 2-Mat",
		"translation":[0.0,
		-7.105427357601002e-15,
		0.0],
		"rotation":[0.0,
		0.0,
		0.0,
		-1.0],
		"scale":[1.0,
		1.0,
		1.0],
		"mesh":6
	},
	{
		"name":"Slice",
		"translation":[-59.20526885986328,
		0.0,
		-102.88128662109375],
		"rotation":[0.0,
		0.0,
		0.0,
		-1.0],
		"scale":[1.0,
		1.0,
		1.0],
		"children":[11]
	},
	{
		"name":"Slice 1",
		"translation":[0.0,
		0.0,
		0.0],
		"rotation":[0.0,
		0.0,
		0.0,
		-1.0],
		"scale":[1.0,
		1.0,
		1.0],
		"children":[12,
		13,
		14]
	},
	{
		"name":"Slice 1-Mat",
		"translation":[0.0,
		0.0,
		0.0],
		"rotation":[0.0,
		0.0,
		0.0,
		-1.0],
		"scale":[1.0,
		1.0,
		1.0],
		"mesh":7
	},
	{
		"name":"Slice 1-Mat",
		"translation":[0.0,
		0.0,
		0.0],
		"rotation":[0.0,
		0.0,
		0.0,
		-1.0],
		"scale":[1.0,
		1.0,
		1.0],
		"mesh":8
	},
	{
		"name":"Slice 1-Pottery White",
		"translation":[0.0,
		0.0,
		0.0],
		"rotation":[0.0,
		0.0,
		0.0,
		-1.0],
		"scale":[1.0,
		1.0,
		1.0],
		"mesh":9
	}],
	"meshes":[{
		"primitives":[{
			"attributes":{
				"POSITION":1,
				"NORMAL":2,
				"TEXCOORD_0":3
			},
			"indices":0,
			"material":0
		}],
		"name":"Slice 6-Pottery White"
	},
	{
		"primitives":[{
			"attributes":{
				"POSITION":5,
				"NORMAL":6,
				"TEXCOORD_0":7
			},
			"indices":4,
			"material":1
		}],
		"name":"Slice 6-Mat"
	},
	{
		"primitives":[{
			"attributes":{
				"POSITION":9,
				"NORMAL":10,
				"TEXCOORD_0":11
			},
			"indices":8,
			"material":0
		}],
		"name":"Slice 5"
	},
	{
		"primitives":[{
			"attributes":{
				"POSITION":13,
				"NORMAL":14,
				"TEXCOORD_0":15
			},
			"indices":12,
			"material":0
		}],
		"name":"Slice 4"
	},
	{
		"primitives":[{
			"attributes":{
				"POSITION":17,
				"NORMAL":18,
				"TEXCOORD_0":19
			},
			"indices":16,
			"material":0
		}],
		"name":"Slice 3"
	},
	{
		"primitives":[{
			"attributes":{
				"POSITION":21,
				"NORMAL":22,
				"TEXCOORD_0":23
			},
			"indices":20,
			"material":0
		}],
		"name":"Slice 2-Pottery White"
	},
	{
		"primitives":[{
			"attributes":{
				"POSITION":25,
				"NORMAL":26,
				"TEXCOORD_0":27
			},
			"indices":24,
			"material":1
		}],
		"name":"Slice 2-Mat"
	},
	{
		"primitives":[{
			"attributes":{
				"POSITION":31,
				"NORMAL":32,
				"TEXCOORD_0":33
			},
			"indices":30,
			"material":1
		}],
		"name":"Slice 1-Mat"
	},
	{
		"primitives":[{
			"attributes":{
				"POSITION":35,
				"NORMAL":36,
				"TEXCOORD_0":37
			},
			"indices":34,
			"material":1
		}],
		"name":"Slice 1-Mat"
	},
	{
		"primitives":[{
			"attributes":{
				"POSITION":39,
				"NORMAL":40,
				"TEXCOORD_0":41
			},
			"indices":38,
			"material":0
		}],
		"name":"Slice 1-Pottery White"
	}],
	"accessors":[{
		"bufferView":0,
		"type":"SCALAR",
		"componentType":5123,
		"count":2139,
		"byteOffset":0,
		"min":[0],
		"max":[406]
	},
	{
		"bufferView":1,
		"type":"VEC3",
		"componentType":5126,
		"count":407,
		"byteOffset":0,
		"min":[-86.50980377197266,
		-50.0,
		-100.0],
		"max":[7.105427357601002e-15,
		150.0,
		-3.552713678800501e-15]
	},
	{
		"bufferView":1,
		"type":"VEC3",
		"componentType":5126,
		"count":407,
		"byteOffset":12,
		"min":[-0.8576563000679016,
		-0.9988750219345093,
		-0.9987813234329224],
		"max":[1.0,
		0.9988750219345093,
		0.0]
	},
	{
		"bufferView":1,
		"type":"VEC2",
		"componentType":5126,
		"count":407,
		"byteOffset":24,
		"min":[0.0020260666497051718,
		0.33372634649276736],
		"max":[0.9950248003005981,
		0.9950248003005981]
	},
	{
		"bufferView":2,
		"type":"SCALAR",
		"componentType":5123,
		"count":93,
		"byteOffset":0,
		"min":[0],
		"max":[32]
	},
	{
		"bufferView":3,
		"type":"VEC3",
		"componentType":5126,
		"count":33,
		"byteOffset":0,
		"min":[-86.50980377197266,
		-50.0,
		-49.94645690917969],
		"max":[7.105427357601002e-15,
		150.0,
		-3.552713678800501e-15]
	},
	{
		"bufferView":3,
		"type":"VEC3",
		"componentType":5126,
		"count":33,
		"byteOffset":12,
		"min":[-0.5,
		0.0,
		0.8659687638282776],
		"max":[-0.4999062716960907,
		0.0,
		0.8659687638282776]
	},
	{
		"bufferView":3,
		"type":"VEC2",
		"componentType":5126,
		"count":33,
		"byteOffset":24,
		"min":[0.0020260666497051718,
		0.001669407356530428],
		"max":[0.8088881969451904,
		0.33372634649276736]
	},
	{
		"bufferView":4,
		"type":"SCALAR",
		"componentType":5123,
		"count":2232,
		"byteOffset":0,
		"min":[0],
		"max":[439]
	},
	{
		"bufferView":5,
		"type":"VEC3",
		"componentType":5126,
		"count":440,
		"byteOffset":0,
		"min":[-86.50980377197266,
		-50.0,
		-100.0],
		"max":[7.105427357601002e-15,
		150.0,
		-3.552713678800501e-15]
	},
	{
		"bufferView":5,
		"type":"VEC3",
		"componentType":5126,
		"count":440,
		"byteOffset":12,
		"min":[-0.8576141595840454,
		-0.9989043474197388,
		-0.9986619353294373],
		"max":[1.0,
		0.9989043474197388,
		0.8660271763801575]
	},
	{
		"bufferView":5,
		"type":"VEC2",
		"componentType":5126,
		"count":440,
		"byteOffset":24,
		"min":[0.0020260666497051718,
		0.001669407356530428],
		"max":[0.9950248003005981,
		0.9950248003005981]
	},
	{
		"bufferView":6,
		"type":"SCALAR",
		"componentType":5123,
		"count":2232,
		"byteOffset":0,
		"min":[0],
		"max":[439]
	},
	{
		"bufferView":7,
		"type":"VEC3",
		"componentType":5126,
		"count":440,
		"byteOffset":0,
		"min":[-86.50980377197266,
		-50.0,
		-100.0],
		"max":[7.105427357601002e-15,
		150.0,
		-3.552713678800501e-15]
	},
	{
		"bufferView":7,
		"type":"VEC3",
		"componentType":5126,
		"count":440,
		"byteOffset":12,
		"min":[-0.8576141595840454,
		-0.9989043474197388,
		-0.9986619353294373],
		"max":[1.0,
		0.9989043474197388,
		0.8660271763801575]
	},
	{
		"bufferView":7,
		"type":"VEC2",
		"componentType":5126,
		"count":440,
		"byteOffset":24,
		"min":[0.0020260666497051718,
		0.001669407356530428],
		"max":[0.9950248003005981,
		0.9950248003005981]
	},
	{
		"bufferView":8,
		"type":"SCALAR",
		"componentType":5123,
		"count":2232,
		"byteOffset":0,
		"min":[0],
		"max":[439]
	},
	{
		"bufferView":9,
		"type":"VEC3",
		"componentType":5126,
		"count":440,
		"byteOffset":0,
		"min":[-86.50980377197266,
		-50.0,
		-100.0],
		"max":[7.105427357601002e-15,
		150.0,
		-3.552713678800501e-15]
	},
	{
		"bufferView":9,
		"type":"VEC3",
		"componentType":5126,
		"count":440,
		"byteOffset":12,
		"min":[-0.8576141595840454,
		-0.9989043474197388,
		-0.9986619353294373],
		"max":[1.0,
		0.9989043474197388,
		0.8660271763801575]
	},
	{
		"bufferView":9,
		"type":"VEC2",
		"componentType":5126,
		"count":440,
		"byteOffset":24,
		"min":[0.0020260666497051718,
		0.001669407356530428],
		"max":[0.9950248003005981,
		0.9950248003005981]
	},
	{
		"bufferView":10,
		"type":"SCALAR",
		"componentType":5123,
		"count":2139,
		"byteOffset":0,
		"min":[0],
		"max":[406]
	},
	{
		"bufferView":11,
		"type":"VEC3",
		"componentType":5126,
		"count":407,
		"byteOffset":0,
		"min":[-86.50980377197266,
		-50.0,
		-100.0],
		"max":[7.105427357601002e-15,
		150.0,
		-3.552713678800501e-15]
	},
	{
		"bufferView":11,
		"type":"VEC3",
		"componentType":5126,
		"count":407,
		"byteOffset":12,
		"min":[-0.8576563000679016,
		-0.9988750219345093,
		-0.9987813234329224],
		"max":[-0.004750000312924385,
		0.9988750219345093,
		0.8659687638282776]
	},
	{
		"bufferView":11,
		"type":"VEC2",
		"componentType":5126,
		"count":407,
		"byteOffset":24,
		"min":[0.0020260666497051718,
		0.001669407356530428],
		"max":[0.9950248003005981,
		0.9950248003005981]
	},
	{
		"bufferView":12,
		"type":"SCALAR",
		"componentType":5123,
		"count":93,
		"byteOffset":0,
		"min":[0],
		"max":[32]
	},
	{
		"bufferView":13,
		"type":"VEC3",
		"componentType":5126,
		"count":33,
		"byteOffset":0,
		"min":[7.105427357601002e-15,
		-50.0,
		-100.0],
		"max":[7.105427357601002e-15,
		150.0,
		-3.552713678800501e-15]
	},
	{
		"bufferView":13,
		"type":"VEC3",
		"componentType":5126,
		"count":33,
		"byteOffset":12,
		"min":[1.0,
		0.0,
		0.0],
		"max":[1.0,
		0.0,
		0.0]
	},
	{
		"bufferView":13,
		"type":"VEC2",
		"componentType":5126,
		"count":33,
		"byteOffset":24,
		"min":[0.0020260666497051718,
		0.33372634649276736],
		"max":[0.8088881969451904,
		0.6661392450332642]
	},
	{
		"bufferView":14,
		"type":"SCALAR",
		"componentType":5126,
		"count":201,
		"byteOffset":0,
		"min":[0.0],
		"max":[6.666666507720947]
	},
	{
		"bufferView":14,
		"type":"VEC3",
		"componentType":5126,
		"count":201,
		"byteOffset":804,
		"min":[-61.0,
		0.0,
		-106.0],
		"max":[0.0,
		0.0,
		0.0]
	},
	{
		"bufferView":15,
		"type":"SCALAR",
		"componentType":5123,
		"count":93,
		"byteOffset":0,
		"min":[0],
		"max":[32]
	},
	{
		"bufferView":16,
		"type":"VEC3",
		"componentType":5126,
		"count":33,
		"byteOffset":0,
		"min":[-86.50980377197266,
		0.0,
		-49.94645690917969],
		"max":[7.105427357601002e-15,
		200.0,
		-3.552713678800501e-15]
	},
	{
		"bufferView":16,
		"type":"VEC3",
		"componentType":5126,
		"count":33,
		"byteOffset":12,
		"min":[-0.5,
		0.0,
		0.8659687638282776],
		"max":[-0.4999062716960907,
		0.0,
		0.8659687638282776]
	},
	{
		"bufferView":16,
		"type":"VEC2",
		"componentType":5126,
		"count":33,
		"byteOffset":24,
		"min":[0.0020260666497051718,
		0.001669407356530428],
		"max":[0.8088881969451904,
		0.33372634649276736]
	},
	{
		"bufferView":17,
		"type":"SCALAR",
		"componentType":5123,
		"count":93,
		"byteOffset":0,
		"min":[0],
		"max":[32]
	},
	{
		"bufferView":18,
		"type":"VEC3",
		"componentType":5126,
		"count":33,
		"byteOffset":0,
		"min":[7.105427357601002e-15,
		0.0,
		-100.0],
		"max":[7.105427357601002e-15,
		200.0,
		-3.552713678800501e-15]
	},
	{
		"bufferView":18,
		"type":"VEC3",
		"componentType":5126,
		"count":33,
		"byteOffset":12,
		"min":[1.0,
		0.0,
		0.0],
		"max":[1.0,
		0.0,
		0.0]
	},
	{
		"bufferView":18,
		"type":"VEC2",
		"componentType":5126,
		"count":33,
		"byteOffset":24,
		"min":[0.0020260666497051718,
		0.33372634649276736],
		"max":[0.8088881969451904,
		0.6661392450332642]
	},
	{
		"bufferView":19,
		"type":"SCALAR",
		"componentType":5123,
		"count":2046,
		"byteOffset":0,
		"min":[0],
		"max":[373]
	},
	{
		"bufferView":20,
		"type":"VEC3",
		"componentType":5126,
		"count":374,
		"byteOffset":0,
		"min":[-86.50980377197266,
		0.0,
		-100.0],
		"max":[7.105427357601002e-15,
		200.0,
		-3.552713678800501e-15]
	},
	{
		"bufferView":20,
		"type":"VEC3",
		"componentType":5126,
		"count":374,
		"byteOffset":12,
		"min":[-0.8576563000679016,
		-0.9988750219345093,
		-0.9987813234329224],
		"max":[-0.004750000312924385,
		0.9988750219345093,
		-0.04012500122189522]
	},
	{
		"bufferView":20,
		"type":"VEC2",
		"componentType":5126,
		"count":374,
		"byteOffset":24,
		"min":[0.0020260666497051718,
		0.676155686378479],
		"max":[0.9950248003005981,
		0.9950248003005981]
	}],
	"bufferViews":[{
		"buffer":0,
		"byteOffset":0,
		"byteLength":4278,
		"target":34963
	},
	{
		"buffer":0,
		"byteOffset":4280,
		"byteLength":13024,
		"target":34962,
		"byteStride":32
	},
	{
		"buffer":1,
		"byteOffset":0,
		"byteLength":186,
		"target":34963
	},
	{
		"buffer":1,
		"byteOffset":188,
		"byteLength":1056,
		"target":34962,
		"byteStride":32
	},
	{
		"buffer":2,
		"byteOffset":0,
		"byteLength":4464,
		"target":34963
	},
	{
		"buffer":2,
		"byteOffset":4464,
		"byteLength":14080,
		"target":34962,
		"byteStride":32
	},
	{
		"buffer":3,
		"byteOffset":0,
		"byteLength":4464,
		"target":34963
	},
	{
		"buffer":3,
		"byteOffset":4464,
		"byteLength":14080,
		"target":34962,
		"byteStride":32
	},
	{
		"buffer":4,
		"byteOffset":0,
		"byteLength":4464,
		"target":34963
	},
	{
		"buffer":4,
		"byteOffset":4464,
		"byteLength":14080,
		"target":34962,
		"byteStride":32
	},
	{
		"buffer":5,
		"byteOffset":0,
		"byteLength":4278,
		"target":34963
	},
	{
		"buffer":5,
		"byteOffset":4280,
		"byteLength":13024,
		"target":34962,
		"byteStride":32
	},
	{
		"buffer":6,
		"byteOffset":0,
		"byteLength":186,
		"target":34963
	},
	{
		"buffer":6,
		"byteOffset":188,
		"byteLength":1056,
		"target":34962,
		"byteStride":32
	},
	{
		"buffer":7,
		"byteOffset":0,
		"byteLength":3216
	},
	{
		"buffer":8,
		"byteOffset":0,
		"byteLength":186,
		"target":34963
	},
	{
		"buffer":8,
		"byteOffset":188,
		"byteLength":1056,
		"target":34962,
		"byteStride":32
	},
	{
		"buffer":9,
		"byteOffset":0,
		"byteLength":186,
		"target":34963
	},
	{
		"buffer":9,
		"byteOffset":188,
		"byteLength":1056,
		"target":34962,
		"byteStride":32
	},
	{
		"buffer":10,
		"byteOffset":0,
		"byteLength":4092,
		"target":34963
	},
	{
		"buffer":10,
		"byteOffset":4092,
		"byteLength":11968,
		"target":34962,
		"byteStride":32
	}],
	"buffers":[{
		"uri":"data:application/octet-stream;base64,",
		"byteLength":17304
	},
	{
		"uri":"data:application/octet-stream;base64,",
		"byteLength":1244
	},
	{
		"uri":"data:application/octet-stream;base64,",
		"byteLength":18544
	},
	{
		"uri":"data:application/octet-stream;base64,",
		"byteLength":18544
	},
	{
		"uri":"data:application/octet-stream;base64,",
		"byteLength":18544
	},
	{
		"uri":"data:application/octet-stream;base64,",
		"byteLength":17304
	},
	{
		"uri":"data:application/octet-stream;base64,",
		"byteLength":1244
	},
	{
		"uri":"data:application/octet-stream;base64,",
		"byteLength":3216
	},
	{
		"uri":"data:application/octet-stream;base64,",
		"byteLength":1244
	},
	{
		"uri":"data:application/octet-stream;base64,",
		"byteLength":1244
	},
	{
		"uri":"data:application/octet-stream;base64,",
		"byteLength":16060
	}],
	"images":[{
		"uri":"data:image/jpeg;base64,"
	},
	{
		"uri":"data:image/jpeg;base64,"
	}],
	"samplers":[{
		"magFilter":9729,
		"minFilter":9729,
		"wrapS":10497,
		"wrapT":10497
	},
	{
		"magFilter":9729,
		"minFilter":9729,
		"wrapS":10497,
		"wrapT":10497
	},
	{
		"magFilter":9729,
		"minFilter":9729,
		"wrapS":10497,
		"wrapT":10497
	}],
	"textures":[{
		"sampler":0,
		"source":0
	},
	{
		"sampler":1,
		"source":1
	},
	{
		"sampler":2,
		"source":0
	}],
	"animations":[{
		"samplers":[{
			"input":28,
			"interpolation":"LINEAR",
			"output":29
		}],
		"channels":[{
			"sampler":0,
			"target":{
				"path":"translation",
				"node":10
			}
		}]
	}]
}