{
	"materials":[{
		"alphaMode":"OPAQUE",
		"pbrMetallicRoughness":{
			"baseColorFactor":[0.2666666666666666,
			1.0,
			0.0,
			1.0],
			"metallicFactor":1.0,
			"roughnessFactor":1.0
		},
		"emissiveFactor":[0.0,
		0.0,
		0.0],
		"doubleSided":true,
		"name":"Mat"
	}],
	"asset":{
		"version":"2.0",
		"generator":"Created using the official Cinema 4D glTF Exporter 1.000x284978"
	},
	"scenes":[{
		"nodes":[0,
		2]
	}],
	"nodes":[{
		"name":"Slice 1",
		"translation":[0.0,
		0.0,
		0.0],
		"rotation":[0.0,
		0.0,
		0.0,
		-1.0],
		"scale":[1.0,
		1.0,
		1.0],
		"children":[1]
	},
	{
		"name":"Slice 1",
		"mesh":0
	},
	{
		"name":"Ball",
		"translation":[0.0,
		0.0,
		0.0],
		"rotation":[0.0,
		0.0,
		0.0,
		-1.0],
		"scale":[1.0,
		1.0,
		1.0],
		"children":[3,
		4,
		5,
		6,
		7]
	},
	{
		"name":"Slice 6",
		"translation":[0.0,
		-7.105427357601002e-15,
		0.0],
		"rotation":[0.0,
		-0.8660253882408142,
		0.0,
		0.5],
		"scale":[1.0,
		1.0,
		1.0],
		"mesh":1
	},
	{
		"name":"Slice 5",
		"translation":[0.0,
		-7.105427357601002e-15,
		0.0],
		"rotation":[0.0,
		-1.0,
		0.0,
		-6.123234262925839e-17],
		"scale":[1.0,
		1.0,
		1.0],
		"mesh":2
	},
	{
		"name":"Slice 4",
		"translation":[0.0,
		0.0,
		0.0],
		"rotation":[0.0,
		-0.8660253882408142,
		0.0,
		-0.5],
		"scale":[1.0,
		1.0,
		1.0],
		"mesh":3
	},
	{
		"name":"Slice 3",
		"translation":[0.0,
		0.0,
		0.0],
		"rotation":[0.0,
		-0.5,
		0.0,
		-0.8660253882408142],
		"scale":[1.0,
		1.0,
		1.0],
		"mesh":4
	},
	{
		"name":"Slice 2",
		"translation":[0.0,
		0.0,
		0.0],
		"rotation":[0.0,
		0.0,
		0.0,
		-1.0],
		"scale":[1.0,
		1.0,
		1.0],
		"mesh":5
	}],
	"meshes":[{
		"primitives":[{
			"attributes":{
				"POSITION":3,
				"NORMAL":4,
				"TEXCOORD_0":5
			},
			"indices":2,
			"material":0
		}],
		"name":"Slice 1"
	},
	{
		"primitives":[{
			"attributes":{
				"POSITION":9,
				"NORMAL":10,
				"TEXCOORD_0":11
			},
			"indices":8,
			"material":0
		}],
		"name":"Slice 6"
	},
	{
		"primitives":[{
			"attributes":{
				"POSITION":13,
				"NORMAL":14,
				"TEXCOORD_0":15
			},
			"indices":12,
			"material":0
		}],
		"name":"Slice 5"
	},
	{
		"primitives":[{
			"attributes":{
				"POSITION":17,
				"NORMAL":18,
				"TEXCOORD_0":19
			},
			"indices":16,
			"material":0
		}],
		"name":"Slice 4"
	},
	{
		"primitives":[{
			"attributes":{
				"POSITION":21,
				"NORMAL":22,
				"TEXCOORD_0":23
			},
			"indices":20,
			"material":0
		}],
		"name":"Slice 3"
	},
	{
		"primitives":[{
			"attributes":{
				"POSITION":25,
				"NORMAL":26,
				"TEXCOORD_0":27
			},
			"indices":24,
			"material":0
		}],
		"name":"Slice 2"
	}],
	"accessors":[{
		"bufferView":0,
		"type":"SCALAR",
		"componentType":5126,
		"count":201,
		"byteOffset":0,
		"min":[0.0],
		"max":[6.666666507720947]
	},
	{
		"bufferView":0,
		"type":"VEC3",
		"componentType":5126,
		"count":201,
		"byteOffset":804,
		"min":[-61.0,
		0.0,
		-106.0],
		"max":[0.0,
		0.0,
		0.0]
	},
	{
		"bufferView":1,
		"type":"SCALAR",
		"componentType":5123,
		"count":8796,
		"byteOffset":0,
		"min":[0],
		"max":[3191]
	},
	{
		"bufferView":2,
		"type":"VEC3",
		"componentType":5126,
		"count":3192,
		"byteOffset":0,
		"min":[-86.84245300292969,
		-0.3399009704589844,
		-100.32462310791016],
		"max":[0.3492956757545471,
		200.45364379882813,
		0.6050035953521729]
	},
	{
		"bufferView":2,
		"type":"VEC3",
		"componentType":5126,
		"count":3192,
		"byteOffset":12,
		"min":[-0.9758521914482117,
		-1.0,
		-0.9987955689430237],
		"max":[0.9987955093383789,
		1.0,
		0.9987955689430237]
	},
	{
		"bufferView":2,
		"type":"VEC2",
		"componentType":5126,
		"count":3192,
		"byteOffset":24,
		"min":[0.0,
		0.0],
		"max":[1.0,
		1.0]
	},
	{
		"bufferView":3,
		"type":"SCALAR",
		"componentType":5126,
		"count":201,
		"byteOffset":0,
		"min":[0.0],
		"max":[6.666666507720947]
	},
	{
		"bufferView":3,
		"type":"VEC3",
		"componentType":5126,
		"count":201,
		"byteOffset":804,
		"min":[-61.0,
		0.0,
		-106.0],
		"max":[0.0,
		0.0,
		0.0]
	},
	{
		"bufferView":4,
		"type":"SCALAR",
		"componentType":5123,
		"count":8796,
		"byteOffset":0,
		"min":[0],
		"max":[3191]
	},
	{
		"bufferView":5,
		"type":"VEC3",
		"componentType":5126,
		"count":3192,
		"byteOffset":0,
		"min":[-100.19662475585938,
		-0.3399009704589844,
		-50.35136413574219],
		"max":[0.6985962986946106,
		200.45364379882813,
		50.217159271240237]
	},
	{
		"bufferView":5,
		"type":"VEC3",
		"componentType":5126,
		"count":3192,
		"byteOffset":12,
		"min":[-0.9999996423721314,
		-1.0,
		-0.9999996423721314],
		"max":[0.9999996423721314,
		1.0,
		0.9999996423721314]
	},
	{
		"bufferView":5,
		"type":"VEC2",
		"componentType":5126,
		"count":3192,
		"byteOffset":24,
		"min":[0.0,
		0.0],
		"max":[1.0,
		1.0]
	},
	{
		"bufferView":6,
		"type":"SCALAR",
		"componentType":5123,
		"count":8796,
		"byteOffset":0,
		"min":[0],
		"max":[3191]
	},
	{
		"bufferView":7,
		"type":"VEC3",
		"componentType":5126,
		"count":3192,
		"byteOffset":0,
		"min":[-100.19662475585938,
		-0.3399009704589844,
		-50.35136413574219],
		"max":[0.6985962986946106,
		200.45364379882813,
		50.217159271240237]
	},
	{
		"bufferView":7,
		"type":"VEC3",
		"componentType":5126,
		"count":3192,
		"byteOffset":12,
		"min":[-0.9999996423721314,
		-1.0,
		-0.9999996423721314],
		"max":[0.9999996423721314,
		1.0,
		0.9999996423721314]
	},
	{
		"bufferView":7,
		"type":"VEC2",
		"componentType":5126,
		"count":3192,
		"byteOffset":24,
		"min":[0.0,
		0.0],
		"max":[1.0,
		1.0]
	},
	{
		"bufferView":8,
		"type":"SCALAR",
		"componentType":5123,
		"count":8796,
		"byteOffset":0,
		"min":[0],
		"max":[3191]
	},
	{
		"bufferView":9,
		"type":"VEC3",
		"componentType":5126,
		"count":3192,
		"byteOffset":0,
		"min":[-100.19662475585938,
		-0.3399009704589844,
		-50.35136413574219],
		"max":[0.6985962986946106,
		200.45364379882813,
		50.217159271240237]
	},
	{
		"bufferView":9,
		"type":"VEC3",
		"componentType":5126,
		"count":3192,
		"byteOffset":12,
		"min":[-0.9999996423721314,
		-1.0,
		-0.9999996423721314],
		"max":[0.9999996423721314,
		1.0,
		0.9999996423721314]
	},
	{
		"bufferView":9,
		"type":"VEC2",
		"componentType":5126,
		"count":3192,
		"byteOffset":24,
		"min":[0.0,
		0.0],
		"max":[1.0,
		1.0]
	},
	{
		"bufferView":10,
		"type":"SCALAR",
		"componentType":5123,
		"count":8796,
		"byteOffset":0,
		"min":[0],
		"max":[3191]
	},
	{
		"bufferView":11,
		"type":"VEC3",
		"componentType":5126,
		"count":3192,
		"byteOffset":0,
		"min":[-100.19662475585938,
		-0.3399009704589844,
		-50.35136413574219],
		"max":[0.6985962986946106,
		200.45364379882813,
		50.217159271240237]
	},
	{
		"bufferView":11,
		"type":"VEC3",
		"componentType":5126,
		"count":3192,
		"byteOffset":12,
		"min":[-0.9999996423721314,
		-1.0,
		-0.9999996423721314],
		"max":[0.9999996423721314,
		1.0,
		0.9999996423721314]
	},
	{
		"bufferView":11,
		"type":"VEC2",
		"componentType":5126,
		"count":3192,
		"byteOffset":24,
		"min":[0.0,
		0.0],
		"max":[1.0,
		1.0]
	},
	{
		"bufferView":12,
		"type":"SCALAR",
		"componentType":5123,
		"count":8796,
		"byteOffset":0,
		"min":[0],
		"max":[3191]
	},
	{
		"bufferView":13,
		"type":"VEC3",
		"componentType":5126,
		"count":3192,
		"byteOffset":0,
		"min":[-100.19662475585938,
		-0.3399009704589844,
		-50.35136413574219],
		"max":[0.6985962986946106,
		200.45364379882813,
		50.217159271240237]
	},
	{
		"bufferView":13,
		"type":"VEC3",
		"componentType":5126,
		"count":3192,
		"byteOffset":12,
		"min":[-0.9999996423721314,
		-1.0,
		-0.9999996423721314],
		"max":[0.9999996423721314,
		1.0,
		0.9999996423721314]
	},
	{
		"bufferView":13,
		"type":"VEC2",
		"componentType":5126,
		"count":3192,
		"byteOffset":24,
		"min":[0.0,
		0.0],
		"max":[1.0,
		1.0]
	}],
	"bufferViews":[{
		"buffer":0,
		"byteOffset":0,
		"byteLength":3216
	},
	{
		"buffer":1,
		"byteOffset":0,
		"byteLength":17592,
		"target":34963
	},
	{
		"buffer":1,
		"byteOffset":17592,
		"byteLength":102144,
		"target":34962,
		"byteStride":32
	},
	{
		"buffer":2,
		"byteOffset":0,
		"byteLength":3216
	},
	{
		"buffer":3,
		"byteOffset":0,
		"byteLength":17592,
		"target":34963
	},
	{
		"buffer":3,
		"byteOffset":17592,
		"byteLength":102144,
		"target":34962,
		"byteStride":32
	},
	{
		"buffer":4,
		"byteOffset":0,
		"byteLength":17592,
		"target":34963
	},
	{
		"buffer":4,
		"byteOffset":17592,
		"byteLength":102144,
		"target":34962,
		"byteStride":32
	},
	{
		"buffer":5,
		"byteOffset":0,
		"byteLength":17592,
		"target":34963
	},
	{
		"buffer":5,
		"byteOffset":17592,
		"byteLength":102144,
		"target":34962,
		"byteStride":32
	},
	{
		"buffer":6,
		"byteOffset":0,
		"byteLength":17592,
		"target":34963
	},
	{
		"buffer":6,
		"byteOffset":17592,
		"byteLength":102144,
		"target":34962,
		"byteStride":32
	},
	{
		"buffer":7,
		"byteOffset":0,
		"byteLength":17592,
		"target":34963
	},
	{
		"buffer":7,
		"byteOffset":17592,
		"byteLength":102144,
		"target":34962,
		"byteStride":32
	}],
	"buffers":[{
		"uri":"data:application/octet-stream;base64,",
		"byteLength":3216
	},
	{
		"uri":"data:application/octet-stream;base64,",
		"byteLength":119736
	},
	{
		"uri":"data:application/octet-stream;base64,",
		"byteLength":3216
	},
	{
		"uri":"data:application/octet-stream;base64,",
		"byteLength":119736
	},
	{
		"uri":"data:application/octet-stream;base64,",
		"byteLength":119736
	},
	{
		"uri":"data:application/octet-stream;base64,",
		"byteLength":119736
	},
	{
		"uri":"data:application/octet-stream;base64,",
		"byteLength":119736
	},
	{
		"uri":"data:application/octet-stream;base64,",
		"byteLength":119736
	}],
	"animations":[{
		"samplers":[{
			"input":0,
			"interpolation":"LINEAR",
			"output":1
		},
		{
			"input":6,
			"interpolation":"LINEAR",
			"output":7
		}],
		"channels":[{
			"sampler":0,
			"target":{
				"path":"translation",
				"node":0
			}
		},
		{
			"sampler":1,
			"target":{
				"path":"translation",
				"node":1
			}
		}]
	}]
}